# xmcd
#
# Track frame offsets:
#	150
#	23593
#	42079
#	59471
#	80674
#	101857
#	122590
#	140990
#	160762
#	177031
#	201402
#
# Disc length: 3013 seconds
#
# Revision: 2
# Processed by: cddbd v1.5.2PL0 Copyright (c) Steve Scherf et al.
# Submitted via: EZCDAudioConverter 8.0.2.1
#
DISCID=970bc30b
DTITLE=Trần Tâm - Vol 02. Người Đàn Ông Chân Thật
DYEAR=2004
DGENRE=World Pop
TTITLE0=Nếu biết trước
TTITLE1=Tôi sẽ không yêu
TTITLE2=Lời nói từ trái tim
TTITLE3=Người Đàn Ông Chân Thật
TTITLE4=Và như thế đi em
TTITLE5=Yêu em, yêu em trọn đời
TTITLE6=Tình nồng say
TTITLE7=Biết làm gì
TTITLE8=Chiếc phao tình
TTITLE9=Nói dối
TTITLE10=Tình đã đổi thay, Kiếp tình chung, Sau một tình yêu
EXTD=
EXTT0=
EXTT1=
EXTT2=
EXTT3=
EXTT4=
EXTT5=
EXTT6=
EXTT7=
EXTT8=
EXTT9=
EXTT10=
PLAYORDER=
